<svg id="tr" xmlns="http://www.w3.org/2000/svg" width="20" height="20" viewBox="0 0 20 20">
  <rect id="tr-box" width="20" height="20" rx="10" fill="#e30a17"/>
  <path id="Path_121" data-name="Path 121" d="M15007.068-14996.874l3.744-1.284-2.313,3.362v-4.155l2.313,3.362Zm.256,2.337a4.036,4.036,0,0,1-4.648,1.86,4.343,4.343,0,0,1-2.985-4.2,4.345,4.345,0,0,1,2.985-4.2,4.038,4.038,0,0,1,4.648,1.861,3.192,3.192,0,0,0-3.647-.928,3.5,3.5,0,0,0-2.125,3.264,3.5,3.5,0,0,0,2.125,3.265A3.192,3.192,0,0,0,15007.324-14994.537Z" transform="translate(-14995.251 15006.874)" fill="#fff"/>
</svg>
