<svg xmlns="http://www.w3.org/2000/svg" width="24" height="24" viewBox="0 0 24 24">
  <path id="phone" d="M10.115,18.789a1.232,1.232,0,1,1-1.232-1.255A1.244,1.244,0,0,1,10.115,18.789Zm5-1.255a1.255,1.255,0,1,0,1.232,1.255A1.244,1.244,0,0,0,15.117,17.534ZM24,18.09v2.385a2.149,2.149,0,0,1-2.129,2.169H20.326C18.8,26.973,14.886,29.588,12,29.588s-6.8-2.615-8.326-6.944H2.129A2.149,2.149,0,0,1,0,20.475V18.09a2.174,2.174,0,0,1,1.116-1.908C1.138,12.8,2.107,10.15,4,8.321,5.878,6.508,8.57,5.588,12,5.588s6.122.92,8,2.733c1.893,1.829,2.862,4.474,2.884,7.86A2.174,2.174,0,0,1,24,18.09Zm-4.506.708c0-.558-.028-1.082-.069-1.59a8.719,8.719,0,0,0-4.825-1.8,3.217,3.217,0,0,1,.679,1.318c-1.326-1.064-3.929-.811-5.9-3.192-.113-.133-.21-.26-.295-.376l0,0h0c-.35-.482-.47-.769-.476-.452A5.194,5.194,0,0,1,4.53,17.875c-.013.3-.024.6-.024.922a9.985,9.985,0,0,0,.5,3.161c1.188,1.459,3.149,1.872,4.886,1.981a2.205,2.205,0,0,1,1.888-.887c1.142,0,2.067.669,2.067,1.495s-.926,1.495-2.067,1.495a2.161,2.161,0,0,1-1.926-.955,10.024,10.024,0,0,1-3.736-.854C7.789,26.743,10.381,28.07,12,28.07,14.543,28.07,19.494,24.8,19.494,18.8ZM21.6,15.921c-.135-5.91-3.447-9.032-9.6-9.032s-9.467,3.122-9.6,9.032h.819a10.523,10.523,0,0,1,1.894-4.89A8.157,8.157,0,0,1,12,8.006a8.157,8.157,0,0,1,6.89,3.025,10.524,10.524,0,0,1,1.893,4.89Z" transform="translate(0 -5.588)" fill="#6961a7"/>
</svg>
