<svg id="en-lang" xmlns="http://www.w3.org/2000/svg" width="20" height="20" viewBox="0 0 20 20">
  <ellipse id="Ellipse_3" data-name="Ellipse 3" cx="9.889" cy="9.889" rx="9.889" ry="9.889" fill="#f0f0f0"/>
  <g id="Group_1" data-name="Group 1" transform="translate(0.347 2.19)">
    <path id="Path_1" data-name="Path 1" d="M244.87,191.845h10.513a10.087,10.087,0,0,0-.347-2.628H244.87Z" transform="translate(-235.73 -184.012)" fill="#d80027"/>
    <path id="Path_2" data-name="Path 2" d="M244.87,58.28H253.9a10.128,10.128,0,0,0-2.325-2.628h-6.71Z" transform="translate(-235.73 -55.652)" fill="#d80027"/>
    <path id="Path_3" data-name="Path 3" d="M102.841,458.538a9.838,9.838,0,0,0,6.2-2.19H96.644A9.838,9.838,0,0,0,102.841,458.538Z" transform="translate(-93.188 -440.728)" fill="#d80027"/>
    <path id="Path_4" data-name="Path 4" d="M9.942,325.41H27a10.056,10.056,0,0,0,1.123-2.628H8.819A10.056,10.056,0,0,0,9.942,325.41Z" transform="translate(-8.819 -312.372)" fill="#d80027"/>
  </g>
  <path id="Path_5" data-name="Path 5" d="M4.667,1.573h.918l-.854.62.326,1L4.2,2.577l-.854.62.282-.867A10.13,10.13,0,0,0,1.677,4.508h.294L1.428,4.9q-.127.212-.244.43l.26.8L.959,5.781q-.181.383-.329.782l.286.88H1.971l-.854.62.326,1-.854-.62-.512.372A10.172,10.172,0,0,0,0,10.075H10.075V0A10.027,10.027,0,0,0,4.667,1.573Zm.39,7.494L4.2,8.447l-.854.62.326-1-.854-.62H3.877l.326-1,.326,1H5.585l-.854.62ZM4.731,5.129l.326,1L4.2,5.512l-.854.62.326-1-.854-.62H3.877l.326-1,.326,1H5.585Zm3.94,3.939-.854-.62-.854.62.326-1-.854-.62H7.491l.326-1,.326,1H9.2l-.854.62ZM8.345,5.129l.326,1-.854-.62-.854.62.326-1-.854-.62H7.491l.326-1,.326,1H9.2Zm0-2.935.326,1-.854-.62-.854.62.326-1-.854-.62H7.491l.326-1,.326,1H9.2Z" fill="#0052b4"/>
</svg>
